# xmcd CD database file
#
# Track frame offsets:
#	150
#	17373
#	32028
#	48912
#	67383
#	85627
#	105069
#	122416
#	141126
#	161583
#	178220
#	195593
#	211589
#
# Disc length: 3011 seconds
#
# Revision: 2
# Processed by: cddbd v1.5.2PL0 Copyright (c) Steve Scherf et al.
# Submitted via: CDex 1.51
#
DISCID=9f0bc10d
DTITLE=Taylor Dayne - Satisfied
DYEAR=2008
DGENRE=Pop
TTITLE0=Beautiful
TTITLE1=I'm Over My Head
TTITLE2=My Heart Can't Change
TTITLE3=She Don't Love You
TTITLE4=Under The Bridge
TTITLE5=Satisfied
TTITLE6=Dedicated
TTITLE7=Kissing You
TTITLE8=Crash
TTITLE9=The Fall
TTITLE10=Love Chain
TTITLE11=Fool To Cry
TTITLE12=Hymn
EXTD=YEAR: 2008
EXTT0=
EXTT1=
EXTT2=
EXTT3=
EXTT4=
EXTT5=
EXTT6=
EXTT7=
EXTT8=
EXTT9=
EXTT10=
EXTT11=
EXTT12=
PLAYORDER=
